<svg width="80" height="20" viewBox="0 0 80 20" fill="none" xmlns="http://www.w3.org/2000/svg">
<g clip-path="url(#clip0_4_11970)">
<path d="M0 17.6531L0 19.9945H20.4045V17.6531H0Z" fill="url(#paint0_linear_4_11970)"/>
<path d="M11.5193 0.0385197V2.11033L16.6384 2.12959L10.2106 13.1407L3.85452 2.08557L9.04262 2.10208V0.0302655L0.110474 0L10.1968 17.5457L20.4045 0.0687853L11.5193 0.0385197Z" fill="url(#paint1_linear_4_11970)"/>
<path d="M30.8055 0H24.4826H23.4472V19.9945H24.4826V10.2132H30.8055C33.6356 10.2132 35.9301 7.92681 35.9301 5.10662C35.9301 2.28642 33.6356 0 30.8055 0ZM30.8055 9.18145H24.4826V1.03178H30.8055C33.0613 1.03178 34.8947 2.85871 34.8947 5.10662C34.8947 7.35452 33.0613 9.18145 30.8055 9.18145Z" fill="#414042"/>
<path d="M39.0557 7.349V14.577C39.0557 16.9954 37.0815 18.9627 34.6545 18.9627C32.2275 18.9627 30.2533 16.9954 30.2533 14.577V11.4486H29.2179V14.577C29.2179 17.5622 31.6559 19.9917 34.6517 19.9917C36.463 19.9917 38.0644 19.103 39.0529 17.7411V19.9917H40.0883V7.349H39.0529H39.0557Z" fill="#414042"/>
<path d="M41.4772 19.9945H52.3255V18.9627H42.6699L52.3255 8.65592V7.349H41.4772V8.38078H51.1658L41.4772 18.7261V19.9945Z" fill="#414042"/>
<path d="M53.6867 19.9945H64.5323V18.9627H54.8795L64.5323 8.65592V7.349H53.6867V8.38078H63.3754L53.6867 18.7261V19.9945Z" fill="#414042"/>
<path d="M66.929 0H65.8936V19.9945H66.929V0Z" fill="#414042"/>
<path d="M74.4557 20H74.1023C70.8966 20 68.2902 17.565 68.2902 14.5714V12.8133C68.2902 9.81976 70.8966 7.38477 74.1023 7.38477H74.1879C77.3935 7.38477 80 9.81976 80 12.8133V14.189H69.3256V14.5714C69.3256 16.9954 71.4682 18.971 74.1023 18.971H74.4557C76.2145 18.971 77.8932 18.4647 79.1799 17.5485L79.7818 18.3877C78.3185 19.4277 76.4271 20.0027 74.4557 20.0027V20ZM69.3256 13.1572H78.9646V12.8133C78.9646 10.3893 76.8219 8.41379 74.1879 8.41379H74.1023C71.4682 8.41379 69.3256 10.3866 69.3256 12.8133V13.1572Z" fill="#414042"/>
</g>
<defs>
<linearGradient id="paint0_linear_4_11970" x1="0" y1="18.8224" x2="20.4045" y2="18.8224" gradientUnits="userSpaceOnUse">
<stop stop-color="#167D87"/>
<stop offset="0.55" stop-color="#0F7086"/>
<stop offset="1" stop-color="#096286"/>
</linearGradient>
<linearGradient id="paint1_linear_4_11970" x1="0.110474" y1="8.77425" x2="0.276139" y2="8.77425" gradientUnits="userSpaceOnUse">
<stop stop-color="#167D87"/>
<stop offset="0.55" stop-color="#0F7086"/>
<stop offset="1" stop-color="#096286"/>
</linearGradient>
<clipPath id="clip0_4_11970">
<rect width="80" height="20" fill="white"/>
</clipPath>
</defs>
</svg>
