<svg xmlns="http://www.w3.org/2000/svg" xml:space="preserve" width="1658.5779" height="177.18773" viewBox="0 0 1658.5779 177.18773"><defs><clipPath id="a" clipPathUnits="userSpaceOnUse"><path d="M0 841.89h595.276V0H0Z"/></clipPath></defs><g clip-path="url(#a)" style="stroke-width:.399343;fill:#1a334d;fill-opacity:1" transform="matrix(3.33882 0 0 -3.33882 -185.304 1936.147)"><path d="M425.261 542.629s-.18-3.044-3.403-3.044h-27.929s-3.044.179-3.044 3.402v12.175h-46.729v-8.594h16.114v-3.939s0-2.865-3.582-2.865h-27.75s-3.043.179-3.043 3.223v17.725s.177 6.982 6.265 6.982h86.834s6.267.179 6.267-6.087zm126.995 5.75v8.901h-45.15v9.729h44.966v12.857h-61.485v-31.109L465.535 579.5h-25.053v-8.626c0 6.332-6.982 8.516-6.982 8.516h-51c-4.5 0-7.465-6.869-7.465-6.869-2.369 5.035-7.535 6.869-7.535 6.869h-49c-3 0-8.5-5.5-8.5-5.5v5.5h-15v-32.5l-28 33h-23v-35c0-2.5-5-5-5-5h-27.5c-3.5 0-4.5 5.5-4.5 5.5v34h-15.5v-6c-.5 4-7 6.5-7 6.5h-68l-22.5-20-19.5 20h-19l31.025-33.8v-18.812h15.417v18.446l22.117 21.933h49.371c3.12 0 3.486-3.487 3.486-3.487v-21.382c0-2.845-3.486-3.304-3.486-3.304h-27.622c-3.396 0-3.396 3.488-3.396 3.488v12.113h-15.325v-18.17c0-9.359 6.516-9.912 6.516-9.912h46.803c7.434 0 11.746 9.728 11.746 9.728 0-6.699 9.361-9.727 9.361-9.727h46.618c7.157 0 9.362 9.636 9.362 9.636v27.897l33.862-37.624h21.196v6.881c0-5.047 6.883-6.515 6.883-6.515h46.435c7.617 0 9.452 9.085 9.452 9.085 0-6.332 9.544-8.992 9.544-8.992h46.619c7.893 0 8.81 9.359 8.81 9.359v-9.91h15.877v34.597l31.201-34.321h64.884v11.553H507.29v9.729z" style="fill:#1a334d;fill-opacity:1;fill-rule:nonzero;stroke:none;stroke-width:.399343"/></g></svg>